# xmcd
#
# Track frame offsets:
#	150
#	19334
#	36453
#	59216
#	70876
#	97561
#	116331
#	129356
#	142191
#	145388
#	156906
#	167463
#	187771
#	201393
#	222973
#	236828
#	257146
#	269851
#	283311
#	298183
#	316801
#
# Disc length: 4467 seconds
#
# Revision: 2
# Processed by: cddbd v1.5.2PL0 Copyright (c) Steve Scherf et al.
# Submitted via: EasyCDDAExtractor 8.2.3.1
#
DISCID=56117115
DTITLE=James Talley - Woody Guthrie And Songs Of My Oklahoma Home
DYEAR=1994
DGENRE=Bluegrass
TTITLE0=Belle Starr
TTITLE1=Dust Pneumonia Blues
TTITLE2=East Texas Red
TTITLE3=Do-Re-Mi
TTITLE4=Deportee
TTITLE5=Vigilante Man
TTITLE6=I Ain't Got No Home
TTITLE7=Roll On Columbia
TTITLE8=Ladies Auxilary
TTITLE9=Gypsy Davy
TTITLE10=Red Wing
TTITLE11=Pretty Boy Floyd
TTITLE12=Talkin' Dust Bowl Blues
TTITLE13=More Pretty Gals Than One and Poor Boy
TTITLE14=Dust Bowl Refugee
TTITLE15=Pastures Of Plenty
TTITLE16=Oklahoma Hills
TTITLE17=Grand Coulee Dam
TTITLE18=So Long It's Been Good To Know You
TTITLE19=The Sinking Of The Reuben James
TTITLE20=This Land Is Your Land
EXTD=YEAR: 1999
EXTT0=
EXTT1=
EXTT2=
EXTT3=
EXTT4=
EXTT5=
EXTT6=
EXTT7=
EXTT8=
EXTT9=
EXTT10=
EXTT11=
EXTT12=
EXTT13=
EXTT14=
EXTT15=
EXTT16=
EXTT17=
EXTT18=
EXTT19=
EXTT20=
PLAYORDER=
